<svg width="50" height="51" viewBox="0 0 50 51" fill="none" xmlns="http://www.w3.org/2000/svg">
<rect y="0.5" width="50" height="50" rx="25" fill="#405535"/>
<path fill-rule="evenodd" clip-rule="evenodd" d="M36.875 22.3622L39.7812 26.956C39.9235 27.1757 39.9994 27.4317 40 27.6935V32.8497C39.9951 33.2227 39.8421 33.5784 39.5749 33.8386C39.3076 34.0988 38.948 34.2422 38.575 34.2372H37.4125C37.1166 35.3259 36.1282 36.0816 35 36.0816C33.8718 36.0816 32.8834 35.3259 32.5875 34.2372H17.4125C17.1166 35.3259 16.1282 36.0816 15 36.0816C13.8718 36.0816 12.8834 35.3259 12.5875 34.2372H11.25C10.5596 34.2372 10 33.6776 10 32.9872V29.8622H11.25V32.9872H12.5875C12.8834 31.8985 13.8718 31.1428 15 31.1428C16.1282 31.1428 17.1166 31.8985 17.4125 32.9872H30V16.1685H17.5V14.9185H30C30.6904 14.9185 31.25 15.4781 31.25 16.1685V21.7372H35.625C36.1217 21.7153 36.5945 21.9517 36.875 22.3622ZM13.75 33.6122C13.75 34.3026 14.3096 34.8622 15 34.8622C15.6904 34.8622 16.25 34.3026 16.25 33.6122C16.25 32.9219 15.6904 32.3622 15 32.3622C14.3096 32.3622 13.75 32.9219 13.75 33.6122ZM35 34.8622C34.3096 34.8622 33.75 34.3026 33.75 33.6122C33.75 32.9219 34.3096 32.3622 35 32.3622C35.6904 32.3622 36.25 32.9219 36.25 33.6122C36.25 34.3026 35.6904 34.8622 35 34.8622ZM38.5688 32.9872C38.6565 32.9984 38.7371 32.9372 38.75 32.8497L38.725 27.6935C38.7309 27.673 38.7309 27.6514 38.725 27.631L35.7875 23.0685C35.7502 23.0161 35.6893 22.9856 35.625 22.9872H31.25V32.9872H32.5875C32.8834 31.8985 33.8718 31.1428 35 31.1428C36.1282 31.1428 37.1166 31.8985 37.4125 32.9872H38.5688Z" fill="white"/>
<path d="M22.337 27.6477C20.8871 19.2901 14.1378 17.9182 10.9444 18.277C10.9347 21.9237 13.1996 28.9034 22.337 27.6477ZM22.337 27.6477L13.071 20.6888" stroke="white" stroke-width="1.1" stroke-linecap="round" stroke-linejoin="round"/>
</svg>
