<?xml version="1.0" encoding="utf-8"?>
<!-- Generator: Adobe Illustrator 25.0.0, SVG Export Plug-In . SVG Version: 6.00 Build 0)  -->
<svg version="1.1" id="Livello_1" xmlns="http://www.w3.org/2000/svg" xmlns:xlink="http://www.w3.org/1999/xlink" x="0px" y="0px"
	 viewBox="0 0 93 58" style="enable-background:new 0 0 93 58;" xml:space="preserve">
<style type="text/css">
	.st0{fill-rule:evenodd;clip-rule:evenodd;fill:#1A1919;}
	.st1{fill:#1A1919;}
</style>
<path class="st0" d="M64,20.2v1.4c0,0.9,0.8,4.5,1.1,5.3c0.3,0.9,1.3,3.9,2.6,3.9h0.2c0.6,0,1.2-0.8,1.2-1.6c0-0.4,0.1,0,0-1.5
	c0-0.2-0.4-3.5-0.9-5.6c-0.3-1.3-0.6-1.9-0.9-2.4c-0.8-1.5-1.5-1.7-1.7-1.7h-0.4C64.4,17.9,64,19.7,64,20.2L64,20.2z M46.6,37.4
	c-0.3,0.4-0.7,0.7-1.1,0.9c-0.8,0.3-1.7-0.1-2.2-0.7c-0.8-0.8-0.6-2.1-0.5-3.2c0.2-1.3,0.7-2.5,1.3-3.7l0.1-0.2l0.6-1.6
	c0-0.2-0.1-0.3-0.4-0.3c-0.3,0-0.6,0.2-1,0.2h-0.1c-0.6,0.1-1.3,0.2-2,0.1l-0.7-0.1c-0.9-0.4-1.7-1-2.1-1.6c-1.2-1.9-1-2.1-1.3-2.1
	c-0.4,0-0.3,0.5-0.4,0.7c-0.1,0.7-0.2,1.1-0.3,1.8c0,0.4-0.4,2.6-0.4,2.7L36,30.6c-1,5.3-2.3,10.4-4.6,15.2
	c-0.7,0.9-1.3,1.7-2.4,1.7c-1,0-1.7-0.7-2.2-1.5c-0.4-0.8-0.8-1.9-0.3-2.7c1.6-1.1,3.2-2.3,4.8-3.5l0.1-0.1c0.1-0.1,0.7-0.5,0.7-0.5
	c0.6-0.4,1.1-0.7,1.1-1.8v-0.9c0-1.1-0.8-2.5-0.8-2.5l0,0c-0.3-0.5-0.6-0.9-1-1.3c-0.7-0.7-1.7-0.8-2.7-0.6
	c-2.4,0.4-4.4,2.1-5.8,4.2c-2,3.2-3,7.6-1.6,11.4c0.7,1.6,2.3,3,4.1,3.2c2.6,0.4,5-1.3,6.5-3.3c2.3-3.4,3.4-7.2,4.4-11.1l0.1-0.4
	c0-0.2,0.3-1.3,0.5-1.8c0.2-0.8,0.3-1.6,0.9-1.6c0.2,0,0.8,0.4,1.5,0.4H40c0.3,0,0.6,0.2,0.6,0.5c0,0.6-0.5,1.3-1,2.5l-0.1,0.3
	c-0.4,1-0.7,2.1-0.9,3.1c-0.2,1.4-0.4,3.2,0.5,4.5c0.5,0.7,1.3,0.9,2.3,0.9c2.6-0.5,4.8-2.7,6.1-5.1c0.1-0.3,0.3-0.6,0.6-0.5
	c1.1,0.5,2.1,1,3.4,1.1c2.6,0.3,5.2-0.9,6.6-3.2c1.6-2.8,0.4-6.4-1.1-8.8c-1.1-1.8-3.4-2.7-4.1-4.8c-0.1-0.3-0.1-0.5-0.1-0.8v-0.3
	c0-0.8,0.7-1.5,1.5-1.5c0.6,0,1.1,0.3,1.3,0.8c0,0,1.2,1.6,1.6,2.1c0.3,0.1,0.5,0,0.7-0.3l1.5-2.7c0.1-0.3,0-0.7-0.3-0.9
	c-1.4-0.9-2.8-1.4-4.5-1.3c-2.4,0.1-4.7,1.8-5.6,4c-1.2,3.1,0.4,6.1,2.4,8.5c1.2,1.7,3.6,2.9,4,5.2c0.1,0.6-0.1,1.1-0.4,1.5
	c-0.5,0.4-0.9,0.8-1.6,0.7c-0.9-0.2-1.6-0.8-2.2-1.4l0,0c-0.4-0.5-0.8-1-1.1-1.4c-0.6-1-0.8-1.2-1-1.2c-0.3,0-0.3,0.3-0.5,0.5
	c-0.1,0.3-0.7,1.5-1.1,2.1C46.9,37.1,46.6,37.4,46.6,37.4z M28.1,37.9c0-0.8-0.2-3-1-3H27c-0.5,0-1.1,0.9-1.3,3.3v0.2
	c0,0.4,0,0.9,0,1.3c0.1,0.7-0.2,1.9,0.7,2c0.8-0.3,1.5-1.1,1.8-1.9c0-0.5,0.1-1,0-1.4L28.1,37.9L28.1,37.9z M91.7,27.7
	c1.1-0.8,1.5-1.7,1.2-2.5c-0.4-1.2-2.6-1.7-5-0.6c-0.6,0.2-1.1,0.5-1.6,0.8l-0.2,0.1c-1.1,0.6-2.2,1.4-3.6,1.2
	c-0.9-0.3-1.4-1.3-1.5-2.2c-0.1-2,0-4,0.2-6c0.6-2.1,2.9-3.5,3.8-5.5c1.9-3,2.9-7.5,1.2-10.9c-0.6-1-1.6-1.9-2.7-2.1
	c-1.9-0.3-3.6,0.7-4.7,2.2c-1.8,2.4-2.3,5.2-2.6,8.1C75.8,16,75.9,22,76.3,27.6c0,0.7,0.1,1.3,0.5,1.9c0.6,0.9,1.8,1,2.8,0.8
	c2.2-0.7,4.2-1.7,6.1-3.2c1.1-0.6,2.1-1.3,3.3-1.6l0.1-0.1c1-0.4,1.9-0.2,2.2,0.4c0.2,0.6-0.4,1.4-1.4,1.8L87.3,29l-17.5,7.7
	l-36,15.7L23,57.1c-0.3,0.2-0.8,0.2-0.8,0.6c0,0.1,0.2,0.2,0.4,0.2c3.9-0.2,7.7-0.7,11.6-1L49,49.5l4.4-2.2l36.9-18.7
	C90.5,28.4,91.7,27.7,91.7,27.7L91.7,27.7z M84.3,4c0-1.3-0.7-2.3-1.6-2.3s-1.6,1-1.6,2.3v0.2C81,7.8,81,11.4,81.3,15
	c0,0.1,0.1,0.3,0.3,0.3c0.3,0,0.6-0.3,0.8-0.5c1.1-1.6,1.4-3.6,1.9-5.5c0.1-1.6,0.3-3.5,0-5.2L84.3,4L84.3,4z M0.9,53.4
	c-0.1,1.2,1.1,2.1,1.9,2.9c2.2,1.6,5.6,2.3,8.1,0.9c5.8-3.5,6.7-10.3,6.9-16.8c0.3-4.7-1.3-9.3,0.2-13.6c0.1-0.8,0.6-1.4,0.7-2.1
	h-0.2c-0.8,0.3-1.4,0.9-2.1,1.3c-4.9,4.1-6.2,10.2-5.7,16.6l0.7,8.8c0.2,1.4,0.2,2.7-0.7,3.8c0,0-0.5,0.9-1.9,1.1
	c-1,0.1-1.8-0.7-1.8-0.7c-1.7-1.4-2.3-3.7-3-5.6c-0.7-0.9-1.1,0-1.1,0C2.3,51.1,1.4,52.2,0.9,53.4z M25.9,21.6
	c1.6,1.3,2.7,3.3,2.2,5.4c-0.7,2.4-3.3,3.8-5.5,4.5c-0.3,0-0.5-0.1-0.6-0.3c0.8-2.6,1.1-6-0.9-8.1c-1.5-1.9-3.9-2.3-6.1-1.8
	c-4.5,0.8-8.1,5.3-9,9.5c-1.4,4.5-0.4,9.5,2.6,12.9c0.1,0.3-0.2,0.4-0.4,0.5c-2.7,0.5-5.3-0.8-6.8-3c-1.2-2.1-1.6-4.6-1.2-7.1
	c0.5-3.7,3-6.5,5.6-9.2c4.5-4,10.2-6.3,16.4-4.9C23.4,20.4,24.7,20.9,25.9,21.6z M72.9,17.7c2.1,3.2,1.3,8.1-0.2,11.3
	c-1.2,2.5-3.6,5.1-6.3,5.9c-1.7,0.2-3.2-0.5-4.3-1.6c-1.8-2.2-1.8-5.3-1.4-8.1c0.4-3.2,2-6.6,4.2-8.5c1.2-1.1,2.8-1.5,4.5-1.2
	C70.8,15.7,72.1,16.5,72.9,17.7z"/>
<g>
	<path class="st1" d="M93,2c0-1.1-0.9-2-2-2c-1.1,0-2,0.8-2,2c0,1.1,0.9,2,2,2v0C92.1,3.9,93,3.1,93,2C93,2,93,2,93,2z M91,3.5
		c-0.9,0-1.6-0.7-1.6-1.6c0-0.9,0.7-1.6,1.6-1.6c0.9,0,1.6,0.7,1.6,1.6C92.6,2.9,91.9,3.5,91,3.5z"/>
	<path class="st1" d="M91.8,1.3c0-0.5-0.2-0.7-0.7-0.7h-0.8V3h0.3V2H91l0.5,1h0.3l-0.6-1C91.6,1.9,91.8,1.8,91.8,1.3z M91,1.7h-0.3
		V1H91c0.2,0,0.4,0.1,0.4,0.4C91.4,1.7,91.2,1.7,91,1.7z"/>
</g>
</svg>
