<svg width="30" height="30" viewBox="0 0 30 30" fill="none" xmlns="http://www.w3.org/2000/svg">
    <path fill-rule="evenodd" clip-rule="evenodd" d="m26.875 11.862 2.906 4.594c.143.22.218.476.219.738v5.156a1.406 1.406 0 0 1-1.425 1.387h-1.162a2.5 2.5 0 0 1-4.826 0H7.412a2.5 2.5 0 0 1-4.824 0H1.25c-.69 0-1.25-.56-1.25-1.25v-3.125h1.25v3.125h1.337a2.5 2.5 0 0 1 4.825 0H20V5.668H7.5v-1.25H20c.69 0 1.25.56 1.25 1.25v5.57h4.375c.497-.023.97.214 1.25.624zM3.75 23.112a1.25 1.25 0 1 0 2.5 0 1.25 1.25 0 0 0-2.5 0zM25 24.362a1.25 1.25 0 1 1 0-2.5 1.25 1.25 0 0 1 0 2.5zm3.569-1.875a.162.162 0 0 0 .181-.137l-.025-5.157a.113.113 0 0 0 0-.062l-2.938-4.563a.194.194 0 0 0-.162-.08H21.25v10h1.337a2.5 2.5 0 0 1 4.826 0h1.156z" fill="#000"/>
    <path fill="#000" d="M5 8.112h6.25v1.25H5zM2.5 11.862h6.25v1.25H2.5zM0 15.612h6.25v1.25H0z"/>
</svg>
