
       <svg width="21" height="18" viewBox="0 0 21 18" fill="none" xmlns="http://www.w3.org/2000/svg">
	<path d="M9.53136 3.44127L10.1211 4.19181L10.7108 3.44127C11.0639 2.9919 11.6688 2.30293 12.4342 1.73214C13.2053 1.1572 14.0745 0.75 14.9727 0.75C17.4032 0.75 19.4961 2.94055 19.4961 5.77841C19.4961 7.0588 19.0578 8.27126 18.2713 9.20524L18.2226 9.26303L18.2095 9.28707C18.1611 9.33817 18.1157 9.38102 18.0597 9.43225L18.0597 9.4322L18.052 9.43941L17.9688 9.51773L17.9687 9.51767L17.9608 9.52537L10.1209 17.1249L2.57339 9.82122L2.538 9.76188L2.4517 9.68506C1.3731 8.7249 0.746094 7.31207 0.746094 5.77841C0.746094 2.94055 2.83905 0.75 5.26952 0.75C6.16765 0.75 7.0369 1.1572 7.80795 1.73214C8.57343 2.30293 9.17828 2.9919 9.53136 3.44127Z" stroke="black" stroke-width="1.5"></path>
</svg> 